<svg display="none"
xmlns="http://www.w3.org/2000/svg">

<symbol id="arrow" viewBox="0 0 451.846 451.847"> 
<g>
		<path d="M345.441,248.292L151.154,442.573c-12.359,12.365-32.397,12.365-44.75,0c-12.354-12.354-12.354-32.391,0-44.744
		L278.318,225.92L106.409,54.017c-12.354-12.359-12.354-32.394,0-44.748c12.354-12.359,32.391-12.359,44.75,0l194.287,194.284
		c6.177,6.18,9.262,14.271,9.262,22.366C354.708,234.018,351.617,242.115,345.441,248.292z" />
	</g>
</symbol>
<symbol id="facebook" viewBox="0 0 96.124 96.123">
<g>
	<path d="M72.089,0.02L59.624,0C45.62,0,36.57,9.285,36.57,23.656v10.907H24.037c-1.083,0-1.96,0.878-1.96,1.961v15.803
		c0,1.083,0.878,1.96,1.96,1.96h12.533v39.876c0,1.083,0.877,1.96,1.96,1.96h16.352c1.083,0,1.96-0.878,1.96-1.96V54.287h14.654
		c1.083,0,1.96-0.877,1.96-1.96l0.006-15.803c0-0.52-0.207-1.018-0.574-1.386c-0.367-0.368-0.867-0.575-1.387-0.575H56.842v-9.246
		c0-4.444,1.059-6.7,6.848-6.7l8.397-0.003c1.082,0,1.959-0.878,1.959-1.96V1.98C74.046,0.899,73.17,0.022,72.089,0.02z"/>
</g>
</symbol>
<symbol id="twitter" viewBox="0 0 512 512">
<g>
	<g>
		<path d="M512,97.248c-19.04,8.352-39.328,13.888-60.48,16.576c21.76-12.992,38.368-33.408,46.176-58.016
			c-20.288,12.096-42.688,20.64-66.56,25.408C411.872,60.704,384.416,48,354.464,48c-58.112,0-104.896,47.168-104.896,104.992
			c0,8.32,0.704,16.32,2.432,23.936c-87.264-4.256-164.48-46.08-216.352-109.792c-9.056,15.712-14.368,33.696-14.368,53.056
			c0,36.352,18.72,68.576,46.624,87.232c-16.864-0.32-33.408-5.216-47.424-12.928c0,0.32,0,0.736,0,1.152
			c0,51.008,36.384,93.376,84.096,103.136c-8.544,2.336-17.856,3.456-27.52,3.456c-6.72,0-13.504-0.384-19.872-1.792
			c13.6,41.568,52.192,72.128,98.08,73.12c-35.712,27.936-81.056,44.768-130.144,44.768c-8.608,0-16.864-0.384-25.12-1.44
			C46.496,446.88,101.6,464,161.024,464c193.152,0,298.752-160,298.752-298.688c0-4.64-0.16-9.12-0.384-13.568
			C480.224,136.96,497.728,118.496,512,97.248z"/>
	</g>
</g>
</symbol> 
<symbol id="google" viewBox="0 0 96.828 96.827">
<g>
	<g>
		<path d="M62.617,0H39.525c-10.29,0-17.413,2.256-23.824,7.552c-5.042,4.35-8.051,10.672-8.051,16.912
			c0,9.614,7.33,19.831,20.913,19.831c1.306,0,2.752-0.134,4.028-0.253l-0.188,0.457c-0.546,1.308-1.063,2.542-1.063,4.468
			c0,3.75,1.809,6.063,3.558,8.298l0.22,0.283l-0.391,0.027c-5.609,0.384-16.049,1.1-23.675,5.787
			c-9.007,5.355-9.707,13.145-9.707,15.404c0,8.988,8.376,18.06,27.09,18.06c21.76,0,33.146-12.005,33.146-23.863
			c0.002-8.771-5.141-13.101-10.6-17.698l-4.605-3.582c-1.423-1.179-3.195-2.646-3.195-5.364c0-2.672,1.772-4.436,3.336-5.992
			l0.163-0.165c4.973-3.917,10.609-8.358,10.609-17.964c0-9.658-6.035-14.649-8.937-17.048h7.663c0.094,0,0.188-0.026,0.266-0.077
			l6.601-4.15c0.188-0.119,0.276-0.348,0.214-0.562C63.037,0.147,62.839,0,62.617,0z M34.614,91.535
			c-13.264,0-22.176-6.195-22.176-15.416c0-6.021,3.645-10.396,10.824-12.997c5.749-1.935,13.17-2.031,13.244-2.031
			c1.257,0,1.889,0,2.893,0.126c9.281,6.605,13.743,10.073,13.743,16.678C53.141,86.309,46.041,91.535,34.614,91.535z
			 M34.489,40.756c-11.132,0-15.752-14.633-15.752-22.468c0-3.984,0.906-7.042,2.77-9.351c2.023-2.531,5.487-4.166,8.825-4.166
			c10.221,0,15.873,13.738,15.873,23.233c0,1.498,0,6.055-3.148,9.22C40.94,39.337,37.497,40.756,34.489,40.756z"/>
		<path d="M94.982,45.223H82.814V33.098c0-0.276-0.225-0.5-0.5-0.5H77.08c-0.276,0-0.5,0.224-0.5,0.5v12.125H64.473
			c-0.276,0-0.5,0.224-0.5,0.5v5.304c0,0.275,0.224,0.5,0.5,0.5H76.58V63.73c0,0.275,0.224,0.5,0.5,0.5h5.234
			c0.275,0,0.5-0.225,0.5-0.5V51.525h12.168c0.276,0,0.5-0.223,0.5-0.5v-5.302C95.482,45.446,95.259,45.223,94.982,45.223z"/>
	</g>
</g>
</symbol>
</svg>